<svg xmlns="http://www.w3.org/2000/svg" width="24" height="27.969" viewBox="0 0 24 27.969"><defs><style>.cls-1{fill:#b8b8b8;fill-rule:evenodd}</style></defs><path id="Forma_1_copy" data-name="Forma 1 copy" class="cls-1" d="M19.225.994a5.692 5.692 0 0 0-5.291 4.831l7.054 6.445A5.8 5.8 0 0 0 25 6.444a5.666 5.666 0 0 0-5.775-5.45zM6.754 17.343C5 19.966 3.22 22.576 1.5 25.229a2.28 2.28 0 0 0 .2 3.084 1.92 1.92 0 0 0 2.929-.032c2.263-2.3 4.515-4.6 6.784-6.934l-4.551-4.164zm12.5-4.825l-5.32-4.861-3.078-2.813L4.1 12.827l3.524 3.221 4.738 4.329 3.128 2.858 6.757-7.983z" transform="translate(-1 -1)"/></svg>