<svg xmlns="http://www.w3.org/2000/svg" width="27" height="29" viewBox="0 0 27 29"><defs><style>.cls-1{fill:#b8b8b8;fill-rule:evenodd}</style></defs><path id="Forma_1_copy_2" data-name="Forma 1 copy 2" class="cls-1" d="M13.5 1.009a13.5 13.5 0 1 0 13.487 13.5A13.491 13.491 0 0 0 13.5 1.009zm3.768 18.128a4.287 4.287 0 0 1-2.886 1.331V22.4h-1.6v-1.923a4.214 4.214 0 0 1-3.9-3.688l2.479-.652a2.162 2.162 0 0 0 2.281 2.113 1.758 1.758 0 0 0 1.334-.452 1.537 1.537 0 0 0 .427-1.092 1.209 1.209 0 0 0-.427-1 7.668 7.668 0 0 0-1.9-.867 11.114 11.114 0 0 1-2.066-.915 3.429 3.429 0 0 1-1.21-1.269 3.778 3.778 0 0 1-.464-1.9A4.233 4.233 0 0 1 10.17 8.2a3.7 3.7 0 0 1 2.608-1.385V5.326h1.6v1.492a3.889 3.889 0 0 1 3.482 3.068l-2.208.914q-.648-1.881-2-1.881a1.453 1.453 0 0 0-1.09.42 1.4 1.4 0 0 0-.411 1.019 1.145 1.145 0 0 0 .4.937 6.79 6.79 0 0 0 1.7.807 14.987 14.987 0 0 1 2.24.994 3.533 3.533 0 0 1 1.3 1.292 3.741 3.741 0 0 1 .484 1.928 4.1 4.1 0 0 1-1.008 2.821z"/></svg>