<svg xmlns="http://www.w3.org/2000/svg" width="181.969" height="27" viewBox="0 0 181.969 27"><defs><style>.cls-1{fill:#b5b5b5;fill-rule:evenodd}</style></defs><path id="Shape_1_copy_33" data-name="Shape 1 copy 33" class="cls-1" d="M12.995-.011l4.279 8.487 8.7 1.828-6.054 7.073 1.1 9.617-8.025-4.115-8.024 4.115 1.1-9.617L.011 10.3l8.7-1.828 4.28-8.487m39 0l4.279 8.487 8.7 1.828-6.05 7.077 1.1 9.617-8.025-4.115-8.024 4.115 1.1-9.617-6.06-7.077 8.7-1.828 4.28-8.487m39 0l4.279 8.487 8.7 1.828-6.05 7.077 1.1 9.617-8.025-4.115-8.024 4.115 1.1-9.617-6.06-7.077 8.7-1.828 4.28-8.487m39 0l4.279 8.487 8.7 1.828-6.057 7.073 1.1 9.617L130 22.878l-8.024 4.115 1.1-9.617-6.065-7.076 8.7-1.828L130-.011m39 0l4.279 8.487 8.7 1.828-6.057 7.073 1.1 9.617L169 22.878l-8.024 4.115 1.1-9.617-6.065-7.076 8.7-1.828L169-.011"/></svg>