<svg xmlns="http://www.w3.org/2000/svg" width="181.969" height="27" viewBox="0 0 181.969 27">
  <metadata><?xpacket begin="﻿" id="W5M0MpCehiHzreSzNTczkc9d"?>
<x:xmpmeta xmlns:x="adobe:ns:meta/" x:xmptk="Adobe XMP Core 5.6-c138 79.159824, 2016/09/14-01:09:01        ">
   <rdf:RDF xmlns:rdf="http://www.w3.org/1999/02/22-rdf-syntax-ns#">
      <rdf:Description rdf:about=""/>
   </rdf:RDF>
</x:xmpmeta>
                                                                                                    
                                                                                                    
                                                                                                    
                                                                                                    
                                                                                                    
                                                                                                    
                                                                                                    
                                                                                                    
                                                                                                    
                                                                                                    
                                                                                                    
                                                                                                    
                                                                                                    
                                                                                                    
                                                                                                    
                                                                                                    
                                                                                                    
                                                                                                    
                                                                                                    
                                                                                                    
                           
<?xpacket end="w"?></metadata>
<defs>
    <style>
      .cls-1 {
        fill: #b5b5b5;
        fill-rule: evenodd;
      }
    </style>
  </defs>
  <path id="Shape_1_copy_33" data-name="Shape 1 copy 33" class="cls-1" d="M12.995-.011l4.279,8.487,8.7,1.828L19.92,17.377l1.1,9.617-8.025-4.115L4.971,26.994l1.1-9.617L0.011,10.3l8.7-1.828,4.28-8.487m39,0,4.279,8.487,8.7,1.828L58.92,17.377l1.1,9.617-8.025-4.115-8.024,4.115,1.1-9.617L39.011,10.3l8.7-1.828,4.28-8.487m39,0,4.279,8.487,8.7,1.828L97.92,17.377l1.1,9.617-8.025-4.115-8.024,4.115,1.1-9.617L78.011,10.3l8.7-1.828,4.28-8.487m39,0,4.279,8.487,8.7,1.828-6.057,7.073,1.1,9.617L130,22.878l-8.024,4.115,1.1-9.617L117.011,10.3l8.7-1.828L130-.011m39,0,4.279,8.487,8.7,1.828-6.057,7.073,1.1,9.617L169,22.878l-8.024,4.115,1.1-9.617L156.011,10.3l8.7-1.828L169-.011"/>
</svg>
